<?xml version="1.0" encoding="utf-8"?>
<!-- Generator: Adobe Illustrator 21.1.0, SVG Export Plug-In . SVG Version: 6.00 Build 0)  -->
<svg version="1.1" id="Layer_1" xmlns="http://www.w3.org/2000/svg" xmlns:xlink="http://www.w3.org/1999/xlink" x="0px" y="0px"
	 viewBox="0 0 62 62" style="enable-background:new 0 0 62 62;" xml:space="preserve">
<style type="text/css">
	.st0{fill:#E13439;}
	.st1{fill:#B52F32;}
	.st2{fill:#EFEBEC;}
</style>
<g>
	<circle class="st0" cx="31" cy="31" r="30"/>
	<path class="st1" d="M61,30.6c-0.6-0.5-1.1-1.1-1.3-1.3c-2.7-2.7-8.8-8.9-9.5-8.9c2,3.2,3.3,6.7,3.7,10.5c0.2,1.4-0.3,1.8-1.6,1.6
		c-0.5-0.1-1.1,0-1.7,0c-0.4,0-0.8,0.1-0.8,0.6c0,0.6,0.4,0.6,0.8,0.6c0.1,0,0.1,0,0.2,0C54,34,54,34,54,37.3c0,0.6-0.1,1.1-0.1,1.7
		c-15,0-30,0-45,0v0c0,0,0,0,0,0c0.4,0.4,1.2,1.3,1.6,1.8c6.2,6.2,12.4,12.4,18.6,18.7c0.2,0.2,0.9,0.9,1.6,1.6c0.1,0,0.2,0,0.3,0
		c16.6,0,30-13.4,30-30C61,30.9,61,30.7,61,30.6z"/>
	<path class="st2" d="M50.2,20.4c2,3.2,3.3,6.7,3.7,10.5c0.2,1.4-0.3,1.8-1.6,1.6c-0.5-0.1-1.1,0-1.7,0c-0.4,0-0.8,0.1-0.8,0.6
		c0,0.6,0.4,0.6,0.8,0.6c0.1,0,0.1,0,0.2,0C54,34,54,34,54,37.3c0,0.6-0.1,1.1-0.1,1.7c-15,0-30,0-45,0c-0.6-1.5-0.2-3.1-0.3-4.7
		c0-0.6,0.6-0.5,1-0.6c0.8,0,1.6,0.1,2.5,0.1c0.4,0,0.8-0.1,0.8-0.6c0-0.5-0.4-0.6-0.8-0.6c-1,0-2.1,0.1-3.1,0.1
		c-0.8-2.1,0.1-4.1,0.6-6.1c0.8-2.9,2.3-5.5,4.2-7.9c0.7-0.9,1.2-1.1,2-0.1c0.5,0.6,1.1,1.1,1.6,1.7c0.3,0.3,0.6,0.5,1,0.1
		c0.4-0.4,0.2-0.7-0.1-1c-0.5-0.6-1.1-1.2-1.7-1.6c-0.9-0.7-0.8-1.2,0.1-1.9c4.1-3.4,8.8-5.1,14.1-5.3c0,1.1,0,2.2,0.1,3.3
		c0,0.4-0.2,1,0.5,1c0.7,0,0.5-0.6,0.5-1c0-0.6,0-1.1,0-1.7c-0.1-1.4,0.5-1.7,1.9-1.5c4.3,0.6,8.3,2.1,11.7,4.8
		c0.5,0.4,1.2,0.7,1.3,1.4c-0.7,0.7-1.4,1.4-2,2.2c-0.3,0.4-1.3,0.7-0.5,1.4c0.7,0.7,1-0.3,1.4-0.6c0.8-0.6,1.4-1.6,2.3-2.1
		C48.7,18.5,49.4,19.5,50.2,20.4z M31.2,33.1c4.4,0,8.8,0,13.1,0c1.2,0,1.8-0.4,1.5-1.6c-0.7-3.8-2.2-7-5.2-9.6
		c-2.8-2.4-6.2-3.5-9.8-3.3c-2.9,0.1-5.8,0.8-8.2,2.7c-3.4,2.7-5.8,6-5.9,10.6c0,1.1,0.4,1.2,1.4,1.2C22.5,33.1,26.9,33.1,31.2,33.1
		z"/>
	<path class="st1" d="M31.2,33.1c-4.3,0-8.6,0-13,0c-0.9,0-1.4-0.1-1.4-1.2c0.1-4.6,2.4-7.9,5.9-10.6c2.4-1.9,5.3-2.6,8.2-2.7
		c3.6-0.1,7,0.9,9.8,3.3c2.9,2.5,4.5,5.8,5.2,9.6c0.2,1.3-0.3,1.7-1.5,1.6C39.9,33.1,35.6,33.1,31.2,33.1z"/>
</g>
</svg>
